<svg width="82" height="61" viewBox="0 0 82 61" fill="none" xmlns="http://www.w3.org/2000/svg">
<path d="M56 10L44.0634 1.76787C42.394 0.616554 40.414 0 38.3861 0H26C20.4772 0 16 4.47715 16 10V14.5V18.5C16 24.0228 20.4772 28.5 26 28.5H38H61.5L57.5 24.3301H49L52 20H61.5L65.5 16H52.1759C50.5042 16 48.943 16.8355 48.0157 18.2265L45.9843 21.2735C45.057 22.6645 43.4958 23.5 41.8241 23.5H31H25.5C22.7386 23.5 20.5 21.2614 20.5 18.5V10C20.5 7.23858 22.7386 5 25.5 5H39.9861C40.9732 5 41.9383 5.29219 42.7596 5.83975L49 10H56Z" fill="#12131C"/>
<path d="M5.47559 55.1367C4.57324 55.1367 3.76204 54.9316 3.04199 54.5215C2.32194 54.1113 1.75228 53.5166 1.33301 52.7373C0.913737 51.958 0.704102 51.0169 0.704102 49.9141C0.704102 48.8021 0.913737 47.8564 1.33301 47.0771C1.75228 46.2979 2.32194 45.7031 3.04199 45.293C3.76204 44.8828 4.57324 44.6777 5.47559 44.6777C6.37793 44.6777 7.18685 44.8828 7.90234 45.293C8.6224 45.7031 9.19206 46.2979 9.61133 47.0771C10.0306 47.8564 10.2402 48.8021 10.2402 49.9141C10.2402 51.026 10.0306 51.9717 9.61133 52.751C9.19206 53.5257 8.6224 54.1182 7.90234 54.5283C7.18685 54.9339 6.37793 55.1367 5.47559 55.1367ZM2.88477 49.9141C2.88477 50.9896 3.11947 51.8122 3.58887 52.3818C4.06283 52.9515 4.69173 53.2363 5.47559 53.2363C6.25488 53.2363 6.87923 52.9515 7.34863 52.3818C7.82259 51.8122 8.05957 50.9896 8.05957 49.9141C8.05957 48.834 7.82259 48.0091 7.34863 47.4395C6.87923 46.8652 6.25488 46.5781 5.47559 46.5781C4.69173 46.5781 4.06283 46.8652 3.58887 47.4395C3.11947 48.0091 2.88477 48.834 2.88477 49.9141ZM20.4574 44.8145V55H18.5912L14.1684 48.5947H14.0863V55H11.9398V44.8145H13.8266L18.2221 51.2197H18.3109V44.8145H20.4574ZM22.3348 55V44.8145H29.198V46.5918H24.4813V48.9844H28.8357V50.7275H24.4813V53.2227H29.2117V55H22.3348ZM38.9205 55.1367C38.0136 55.1367 37.2024 54.9316 36.4869 54.5215C35.7714 54.1113 35.2063 53.5166 34.7916 52.7373C34.3814 51.958 34.1764 51.0169 34.1764 49.9141C34.1764 48.8021 34.3837 47.8564 34.7984 47.0771C35.2177 46.2979 35.7851 45.7031 36.5006 45.293C37.2206 44.8828 38.0273 44.6777 38.9205 44.6777C39.7089 44.6777 40.4176 44.8236 41.0465 45.1152C41.6799 45.4069 42.1972 45.8285 42.5982 46.3799C42.9993 46.9313 43.2454 47.599 43.3365 48.3828H41.1627C41.0807 47.8223 40.8414 47.3825 40.4449 47.0635C40.0484 46.7399 39.5563 46.5781 38.9684 46.5781C38.1845 46.5781 37.5533 46.8698 37.0748 47.4531C36.5963 48.0319 36.357 48.8522 36.357 49.9141C36.357 50.9987 36.5963 51.8236 37.0748 52.3887C37.5579 52.9538 38.1868 53.2363 38.9615 53.2363C39.5312 53.2363 40.0143 53.0859 40.4107 52.7852C40.8118 52.4844 41.0624 52.0628 41.1627 51.5205H43.3365C43.2591 52.1449 43.0357 52.7327 42.6666 53.2842C42.302 53.8356 41.803 54.2822 41.1695 54.624C40.5406 54.9658 39.791 55.1367 38.9205 55.1367ZM44.9883 55V44.8145H47.1348V49.0186H51.5029V44.8145H53.6562V55H51.5029V50.7891H47.1348V55H44.9883ZM55.5336 55V44.8145H62.3969V46.5918H57.6801V48.9844H62.0346V50.7275H57.6801V53.2227H62.4105V55H55.5336ZM67.9793 55.1436C66.7443 55.1436 65.7576 54.861 65.0193 54.2959C64.2856 53.7308 63.9028 52.8991 63.8709 51.8008H65.9559C65.9923 52.3112 66.1928 52.6963 66.5574 52.9561C66.9266 53.2113 67.3914 53.3389 67.952 53.3389C68.4988 53.3389 68.9363 53.2227 69.2645 52.9902C69.5971 52.7578 69.7635 52.4548 69.7635 52.0811C69.7635 51.7393 69.6131 51.4772 69.3123 51.2949C69.0115 51.1081 68.5831 50.9486 68.0271 50.8164L66.9129 50.543C66.0561 50.3379 65.3794 50.012 64.8826 49.5654C64.3904 49.1143 64.1443 48.5127 64.1443 47.7607C64.1443 47.1455 64.3107 46.6077 64.6434 46.1475C64.976 45.6826 65.4318 45.3226 66.0105 45.0674C66.5939 44.8076 67.257 44.6777 67.9998 44.6777C68.7563 44.6777 69.4171 44.8076 69.9822 45.0674C70.5473 45.3271 70.9871 45.6872 71.3016 46.1475C71.6206 46.6077 71.7846 47.1387 71.7938 47.7402H69.7156C69.6792 47.3438 69.5105 47.0339 69.2098 46.8105C68.909 46.5872 68.5011 46.4756 67.9861 46.4756C67.462 46.4756 67.0587 46.585 66.7762 46.8037C66.4936 47.0179 66.3523 47.2913 66.3523 47.624C66.3523 47.984 66.5096 48.2575 66.824 48.4443C67.1385 48.6266 67.5167 48.7702 67.9588 48.875L68.868 49.1006C69.4604 49.2327 69.9868 49.4264 70.4471 49.6816C70.9074 49.9323 71.2697 50.2559 71.534 50.6523C71.7983 51.0443 71.9305 51.5228 71.9305 52.0879C71.9305 53.0221 71.5818 53.765 70.8846 54.3164C70.1873 54.8678 69.2189 55.1436 67.9793 55.1436ZM73.09 46.5918V44.8145H81.4504V46.5918H78.3469V55H76.2004V46.5918H73.09Z" fill="#12131C"/>
</svg>
